<?xml version="1.0" encoding="iso-8859-1"?>
<!-- Generator: Adobe Illustrator 19.0.0, SVG Export Plug-In . SVG Version: 6.00 Build 0)  -->
<svg version="1.1" id="Layer_1" xmlns="http://www.w3.org/2000/svg" xmlns:xlink="http://www.w3.org/1999/xlink" x="0px" y="0px"
	 viewBox="0 0 459.343 459.343" style="enable-background:new 0 0 459.343 459.343;" xml:space="preserve">
<g>
	<g id="XMLID_49_">
		<g>
			<polygon style="fill:#E7ECED;" points="309.9,408.643 309.9,445.671 149.443,445.671 149.443,408.643 180.3,408.643 
				279.043,408.643 			"/>
			<rect x="180.3" y="322.243" style="fill:#787E82;" width="98.743" height="86.4"/>
			<rect x="7.5" y="235.844" style="fill:#AFB6BB;" width="444.343" height="86.4"/>
			<rect x="7.5" y="13.671" style="fill:#31C0D8;" width="444.343" height="222.171"/>
		</g>
		<path d="M459.343,329.743V6.171H0v323.571h172.8v71.4h-30.857v52.029H317.4v-52.029h-30.856v-71.4h172.799V329.743z
			 M444.343,21.171v207.171H15V21.171H444.343z M15,314.743v-71.4h429.343v71.4H15z M302.399,438.171H156.943v-22.029H302.4v22.029
			H302.399z M187.8,401.143v-71.4h83.743v71.4H187.8z"/>
	</g>
	<g id="XMLID_29_">
		<g>
			<rect x="223.5" y="118.586" style="fill:#FFD248;" width="37.029" height="74.057"/>
			<rect x="149.443" y="106.243" style="fill:#FFD248;" width="37.029" height="86.4"/>
			<rect x="75.386" y="69.214" style="fill:#FFD248;" width="37.028" height="123.428"/>
		</g>
		<g>
			<g>
				<path d="M119.914,200.144H67.886V61.715h52.028V200.144z M82.886,185.144h22.028V76.714H82.886V185.144z"/>
			</g>
			<g>
				<path d="M193.971,200.144h-52.028v-101.4h52.028V200.144z M156.943,185.144h22.028v-71.4h-22.028V185.144z"/>
			</g>
			<g>
				<path d="M268.028,200.144H216v-89.057h52.028V200.144z M231,185.144h22.028v-59.057H231V185.144z"/>
			</g>
		</g>
	</g>
	<g>
		<rect x="291.386" y="61.715" width="37.028" height="15"/>
	</g>
	<g>
		<rect x="346.929" y="61.715" width="67.886" height="15"/>
	</g>
</g>
<g>
</g>
<g>
</g>
<g>
</g>
<g>
</g>
<g>
</g>
<g>
</g>
<g>
</g>
<g>
</g>
<g>
</g>
<g>
</g>
<g>
</g>
<g>
</g>
<g>
</g>
<g>
</g>
<g>
</g>
</svg>
